<svg width="476" height="72" viewBox="0 0 476 72" fill="none" xmlns="http://www.w3.org/2000/svg">
<rect width="476" height="72" fill="#18171F"/>
<path d="M37.2641 42.18C36.3641 42.18 35.5841 42.03 34.9241 41.73C34.2641 41.43 33.7541 41.004 33.3941 40.452C33.0461 39.888 32.8661 39.228 32.8541 38.472H35.1041C35.1041 39.012 35.2961 39.438 35.6801 39.75C36.0761 40.05 36.6101 40.2 37.2821 40.2C37.9301 40.2 38.4341 40.05 38.7941 39.75C39.1661 39.45 39.3521 39.036 39.3521 38.508C39.3521 38.064 39.2201 37.68 38.9561 37.356C38.7041 37.02 38.3381 36.792 37.8581 36.672L36.3461 36.258C35.3141 35.994 34.5161 35.52 33.9521 34.836C33.4001 34.152 33.1241 33.324 33.1241 32.352C33.1241 31.608 33.2921 30.96 33.6281 30.408C33.9641 29.856 34.4381 29.43 35.0501 29.13C35.6741 28.83 36.4061 28.68 37.2461 28.68C38.5181 28.68 39.5261 29.01 40.2701 29.67C41.0141 30.318 41.3921 31.194 41.4041 32.298H39.1541C39.1541 31.782 38.9861 31.38 38.6501 31.092C38.3141 30.792 37.8401 30.642 37.2281 30.642C36.6401 30.642 36.1841 30.78 35.8601 31.056C35.5361 31.332 35.3741 31.722 35.3741 32.226C35.3741 32.682 35.4941 33.072 35.7341 33.396C35.9861 33.708 36.3461 33.93 36.8141 34.062L38.3801 34.494C39.4241 34.758 40.2221 35.232 40.7741 35.916C41.3261 36.588 41.6021 37.422 41.6021 38.418C41.6021 39.162 41.4221 39.822 41.0621 40.398C40.7021 40.962 40.1981 41.4 39.5501 41.712C38.9021 42.024 38.1401 42.18 37.2641 42.18ZM46.8871 42V30.948H43.4491V28.86H52.5931V30.948H49.1551V42H46.8871ZM54.7821 42V28.86H58.9401C59.8161 28.86 60.5721 29.022 61.2081 29.346C61.8561 29.67 62.3601 30.126 62.7201 30.714C63.0801 31.29 63.2601 31.974 63.2601 32.766C63.2601 33.63 63.0381 34.392 62.5941 35.052C62.1621 35.712 61.5741 36.18 60.8301 36.456L63.4401 42H60.9201L58.6341 36.78H57.0321V42H54.7821ZM57.0321 34.8H58.9401C59.5761 34.8 60.0741 34.626 60.4341 34.278C60.7941 33.93 60.9741 33.45 60.9741 32.838C60.9741 32.214 60.7941 31.728 60.4341 31.38C60.0741 31.02 59.5761 30.84 58.9401 30.84H57.0321V34.8ZM65.791 42V28.86H73.675V30.822H68.005V34.242H73.045V36.186H68.005V40.038H73.675V42H65.791ZM76.296 42V28.86H79.05L82.704 39.48C82.668 39.096 82.626 38.646 82.578 38.13C82.542 37.602 82.512 37.068 82.488 36.528C82.464 35.976 82.452 35.496 82.452 35.088V28.86H84.504V42H81.75L78.132 31.38C78.156 31.728 78.186 32.148 78.222 32.64C78.258 33.132 78.288 33.636 78.312 34.152C78.336 34.668 78.348 35.142 78.348 35.574V42H76.296ZM91.265 42.18C90.425 42.18 89.687 42.024 89.051 41.712C88.427 41.388 87.941 40.938 87.593 40.362C87.257 39.774 87.089 39.084 87.089 38.292V32.568C87.089 31.764 87.257 31.074 87.593 30.498C87.941 29.922 88.427 29.478 89.051 29.166C89.687 28.842 90.425 28.68 91.265 28.68C92.117 28.68 92.849 28.842 93.461 29.166C94.085 29.478 94.571 29.922 94.919 30.498C95.267 31.074 95.441 31.764 95.441 32.568H93.173C93.173 31.944 93.005 31.47 92.669 31.146C92.345 30.822 91.877 30.66 91.265 30.66C90.653 30.66 90.179 30.822 89.843 31.146C89.507 31.47 89.339 31.938 89.339 32.55V38.292C89.339 38.904 89.507 39.378 89.843 39.714C90.179 40.05 90.653 40.218 91.265 40.218C91.877 40.218 92.345 40.05 92.669 39.714C93.005 39.378 93.173 38.904 93.173 38.292V36.96H90.941V35.016H95.441V38.292C95.441 39.084 95.267 39.774 94.919 40.362C94.571 40.938 94.085 41.388 93.461 41.712C92.849 42.024 92.117 42.18 91.265 42.18ZM100.852 42V30.948H97.4139V28.86H106.558V30.948H103.12V42H100.852ZM108.765 42V28.86H111.015V34.134H114.543V28.86H116.793V42H114.543V36.222H111.015V42H108.765Z" fill="#817D92"/>
<rect x="381.5" y="23" width="8" height="26" stroke="#E6E5EA" stroke-width="2"/>
<rect x="399.5" y="23" width="8" height="26" stroke="#E6E5EA" stroke-width="2"/>
<rect x="417.5" y="23" width="8" height="26" stroke="#E6E5EA" stroke-width="2"/>
<rect x="435.5" y="23" width="8" height="26" stroke="#E6E5EA" stroke-width="2"/>
</svg>
